<svg viewBox="0 0 746.36 625.95">
    <g id="Layer_2" data-name="Layer 2">
        <path fill="#eabcd5"
            d="M627.35,313.49c-4.12-2.38-31.56,65.1-47,61-3.1-.82-4.33-4.41-5-5-127.72-111.33-369.21-25-371-29-37-82,91-175,61-273-7.85-25.65-25-55-58-65C169-9.13,85.32,24.76,77.82,105.14a15.14,15.14,0,0,1-7.13,11.52,339.21,339.21,0,0,1-44.34,21.83c-5.17,2-25,25.89-25,59-.05,28.79,15.78,61.28,30,61s34-45,43-51c9.47-6.31,22-8,45-13,2.12-.46,14-2,36-4,24.07-2.19,28.34,2.92,30,5,6,7.49,2,21.81-1,25-29.26,31.16-60.21,175.4-52,239,37,287.07,524.81,178,467-52-3.27-13,11.53-17.91,19-34C629.1,350.33,633.72,317.19,627.35,313.49ZM465.88,430.35c-8.75,9.42-53.81,21-98.8,21.75-1.53,0-3.07,0-4.62,0-39.25,0-83.52-8.35-93-17.8a5.32,5.32,0,0,1-1.86-3.75c.06-5.35,11.65-15.41,88.48-22.67a99.57,99.57,0,0,1,14-.36h0c56.09,2.5,97.19,13.09,97.52,19A5.25,5.25,0,0,1,465.88,430.35Z"
            transform="translate(-0.57 -0.27)" />
    </g>
    <g id="Layer_7" data-name="Layer 7">
        <path fill="#e397bc"
            d="M267,429c50-22,125.94-28,204-2,0,0,5-10,2-15-12.82-21.37-95.78-22.29-106-22-9.18.26-102,3.06-102,27A43.6,43.6,0,0,0,267,429Z"
            transform="translate(-0.57 -0.27)" />
    </g>
    <g id="Layer_8" data-name="Layer 8">
        <path fill="#e397bc"
            d="M132,455c-.5.5-12.45,181.71,230,177,206-4,237-152,237-151,0,.71-101.08,113.49-236.5,111.5C158.5,589.5,132.5,454.5,132,455Z"
            transform="translate(-0.57 -0.27)" />
    </g>
    <g id="Layer_13" data-name="Layer 13">
        <path fill="#eabcd5" d="M267,429c-2.25,16.5,47.26,57.08,96,56,57.8-1.28,108-58,108-58C358,483,267,429,267,429Z"
            transform="translate(-0.57 -0.27)" />
    </g>
    <g id="Layer_3" data-name="Layer 3">
        <path fill="#2d292a"
            d="M30,137c-45.5,17.5-32,118-1.5,123.5C42.76,263.07,74.68,209.63,75,209c1-2,.29-15.22-7.5-23.5-9.64-10.25-21.79-4.75-32-14C23,160.17,30.92,136.65,30,137Z"
            transform="translate(-0.57 -0.27)" />
    </g>
    <g id="Layer_4" data-name="Layer 4">
        <path fill="#f2deef"
            d="M75,209c.48-5.4,42.5-9.5,47.5-17.5,11.42-18.27,20-42,8-57-15.81-19.76-53-33.19-53-31,.44,19.32-33.62,22.15-49.5,32.5-9.87,6.43-2.27,27.58,7,36,10.43,9.48,25.63,5.49,33.5,15.5a13.41,13.41,0,0,1,2.93,5.86"
            transform="translate(-0.57 -0.27)" />
    </g>
    <g id="Layer_5" data-name="Layer 5">
        <path fill="#fff"
            d="M155.29,111.34a15.19,15.19,0,0,1,22.87-.9c3.14,3.4,6,8.4,7.84,17.56,2.71,13.57-6.64,30.28-17,31-10.06.7-20.43-13.61-21-27A30.51,30.51,0,0,1,155.29,111.34Z"
            transform="translate(-0.57 -0.27)" />
    </g>
    <g id="Layer_6" data-name="Layer 6">
        <path fill="#333132"
            d="M156.28,122.12a7.66,7.66,0,0,1,11.53-.46c1.58,1.72,3,4.24,3.95,8.86,1.37,6.84-3.35,15.26-8.57,15.63-5.07.35-10.3-6.86-10.59-13.62A15.33,15.33,0,0,1,156.28,122.12Z"
            transform="translate(-0.57 -0.27)" />
    </g>
</svg>