<svg id="Layer_1" data-name="Layer 1" xmlns="http://www.w3.org/2000/svg" viewBox="0 0 1024 1024"><rect x="0.5" y="0.5" width="1023" height="1023" style="fill:#8fd0fa"/><path d="M1023,1V1023H1V1H1023m1-1H0V1024H1024V0Z" style="fill:#8fd0fa"/><path d="M531.82,218.65C508.59,240.29,15,694.43,243.13,857.78c46.63,33.39,197.19,40.6,211.93-100.12,16.47-157.25,16.69-494.22,16.69-539,0-36.71-16.69-66.75-50.06-66.75-29.37,0-51.74,36.72-51.74,66.75C370,295.43,356.6,504,356.6,692.58c.09,1.19-4.43,83.16-35,83.43-29.52.27-38.38-45-38.38-45-1.67-23.36,5-45.06,30-90.11,38.07-68.54,259.68-324.79,288.69-347.1,21.69-16.69,51.73-25,78.43-1.67,52.46,45.9,51.73,148.52-6.67,178.55-65.6,33.74-110.14-70.08-163.54-5-63.94,77.93,112.19,140.59,190.24,115.14,153.52-50.06,151.81-320.85,50.06-397.16C683.68,133.55,580.22,173.6,531.82,218.65Z" style="fill:#54c0f9"/><path d="M550.09,212.75C526.85,234.38,33.23,688.53,261.4,851.88c46.63,33.39,197.19,40.6,211.93-100.13C489.8,594.51,490,257.53,490,212.75,490,176,473.33,146,440,146c-29.36,0-51.73,36.71-51.73,66.75,0,76.78-13.35,285.36-13.35,473.92.08,1.2-4.43,83.16-35,83.44-29.53.27-38.38-45.06-38.38-45.06-1.67-23.36,5-45,30-90.11,38.08-68.53,259.69-324.78,288.7-347.1,21.69-16.68,51.73-25,78.43-1.67,52.46,45.91,51.73,148.52-6.68,178.56-65.6,33.74-110.14-70.09-163.54-5-63.94,77.93,112.2,140.6,190.24,115.15C872.16,524.81,870.44,254,768.69,177.71,701.94,127.64,598.48,167.69,550.09,212.75Z" style="fill:#f2b8d5"/><path d="M216.49,728.65A11.26,11.26,0,0,0,215,735c-.29,21.77,18.52,120.55,131.54,123.56h.24a9.67,9.67,0,0,0,8.44-13.32c-.95-2.32-2.57-4.48-5.34-5-26-5.17-96.15-21.55-114.39-106.76a14.69,14.69,0,0,0-1.47-4C231.45,724.84,224.68,716.71,216.49,728.65Z" style="fill:#ef91bd"/><path d="M813.69,290.79c8.53-2.18,4.17-13,3.73-14.69-1.69-6.23-23.16-77.34-80.2-102.73-13-5.76-20.19-1.92-20.19-1.92-6.8,9.65,0,13.58,2,14.25,52.37,17.23,76.34,78.54,78.31,92.19C797.53,279,802.39,293.67,813.69,290.79Z" style="fill:#ef91bd"/></svg>